HIERARCHY
ROOT Hips
{
	OFFSET 0.00000 0.00000 0.00000
	CHANNELS 6 Xposition Yposition Zposition Zrotation Yrotation Xrotation 
	JOINT LHipJoint
	{
		OFFSET 0 0 0
		CHANNELS 3 Zrotation Yrotation Xrotation
		JOINT LeftUpLeg
		{
			OFFSET 1.53794 -1.55850 0.93568
			CHANNELS 3 Zrotation Yrotation Xrotation
			JOINT LeftLeg
			{
				OFFSET 2.28545 -6.27922 0.00000
				CHANNELS 3 Zrotation Yrotation Xrotation
				JOINT LeftFoot
				{
					OFFSET 2.37329 -6.52057 0.00000
					CHANNELS 3 Zrotation Yrotation Xrotation
					JOINT LeftToeBase
					{
						OFFSET 0.14846 -0.40788 2.09160
						CHANNELS 3 Zrotation Yrotation Xrotation
						End Site
						{
							OFFSET 0.00000 -0.00000 1.07536
						}
					}
				}
			}
		}
	}
	JOINT RHipJoint
	{
		OFFSET 0 0 0
		CHANNELS 3 Zrotation Yrotation Xrotation
		JOINT RightUpLeg
		{
			OFFSET -1.78290 -1.55850 0.93568
			CHANNELS 3 Zrotation Yrotation Xrotation
			JOINT RightLeg
			{
				OFFSET -2.24144 -6.15831 0.00000
				CHANNELS 3 Zrotation Yrotation Xrotation
				JOINT RightFoot
				{
					OFFSET -2.35091 -6.45907 0.00000
					CHANNELS 3 Zrotation Yrotation Xrotation
					JOINT RightToeBase
					{
						OFFSET -0.14428 -0.39641 2.07944
						CHANNELS 3 Zrotation Yrotation Xrotation
						End Site
						{
							OFFSET -0.00000 -0.00000 1.06864
						}
					}
				}
			}
		}
	}
	JOINT LowerBack
	{
		OFFSET 0 0 0
		CHANNELS 3 Zrotation Yrotation Xrotation
		JOINT Spine
		{
			OFFSET -0.08841 2.11430 -0.15818
			CHANNELS 3 Zrotation Yrotation Xrotation
			JOINT Spine1
			{
				OFFSET -0.00033 2.12605 -0.08097
				CHANNELS 3 Zrotation Yrotation Xrotation
				JOINT Neck
				{
					OFFSET 0 0 0
					CHANNELS 3 Zrotation Yrotation Xrotation
					JOINT Neck1
					{
						OFFSET 0.04431 1.59447 0.43193
						CHANNELS 3 Zrotation Yrotation Xrotation
						JOINT Head
						{
							OFFSET 0.00455 1.62017 -0.58852
							CHANNELS 3 Zrotation Yrotation Xrotation
							End Site
							{
								OFFSET -0.00920 1.72955 -0.25850
							}
						}
					}
				}
				JOINT LeftShoulder
				{
					OFFSET 0 0 0
					CHANNELS 3 Zrotation Yrotation Xrotation
					JOINT LeftArm
					{
						OFFSET 2.86490 1.49927 -0.33774
						CHANNELS 3 Zrotation Yrotation Xrotation
						JOINT LeftForeArm
						{
							OFFSET 4.87408 -0.00000 0.00000
							CHANNELS 3 Zrotation Yrotation Xrotation
							JOINT LeftHand
							{
								OFFSET 2.76729 -0.00000 0.00000
								CHANNELS 3 Zrotation Yrotation Xrotation
								JOINT LeftFingerBase
								{
									OFFSET 0 0 0
									CHANNELS 3 Zrotation Yrotation Xrotation
									JOINT LeftHandIndex1
									{
										OFFSET 0.98922 -0.00000 0.00000
										CHANNELS 3 Zrotation Yrotation Xrotation
										End Site
										{
											OFFSET 0.79753 -0.00000 0.00000
										}
									}
								}
								JOINT LThumb
								{
									OFFSET 0 0 0
									CHANNELS 3 Zrotation Yrotation Xrotation
									End Site
									{
										OFFSET 0.80972 -0.00000 0.80972
									}
								}
							}
						}
					}
				}
				JOINT RightShoulder
				{
					OFFSET 0 0 0
					CHANNELS 3 Zrotation Yrotation Xrotation
					JOINT RightArm
					{
						OFFSET -2.94414 1.45463 -0.25291
						CHANNELS 3 Zrotation Yrotation Xrotation
						JOINT RightForeArm
						{
							OFFSET -4.71404 -0.00000 0.00000
							CHANNELS 3 Zrotation Yrotation Xrotation
							JOINT RightHand
							{
								OFFSET -2.83468 -0.00000 0.00000
								CHANNELS 3 Zrotation Yrotation Xrotation
								JOINT RightFingerBase
								{
									OFFSET 0 0 0
									CHANNELS 3 Zrotation Yrotation Xrotation
									JOINT RightHandIndex1
									{
										OFFSET -0.86820 -0.00000 0.00000
										CHANNELS 3 Zrotation Yrotation Xrotation
										End Site
										{
											OFFSET -0.69996 -0.00000 0.00000
										}
									}
								}
								JOINT RThumb
								{
									OFFSET 0 0 0
									CHANNELS 3 Zrotation Yrotation Xrotation
									End Site
									{
										OFFSET -0.71065 -0.00000 0.71065
									}
								}
							}
						}
					}
				}
			}
		}
	}
}
MOTION
Frames: 6
Frame Time: .0083333
3.1173 15.0109 8.1142 -177.4430 -18.9009 -156.1170 0.0000 0.0000 0.0000 1.0513 -26.3946 -65.6670 8.9715 16.7893 55.9914 -3.4013 30.5698 -11.3337 0.1149 -2.1856 -6.0190 0.0000 0.0000 0.0000 18.8990 24.7263 -49.3272 -7.0382 -15.3639 49.0185 -0.3928 -11.7571 -21.2747 -0.1094 2.1325 -5.8719 -3.2100 6.8953 37.9850 3.3758 3.0813 15.7114 4.2174 -0.5304 -1.6475 -2.7192 -4.9539 -30.8498 6.8285 -8.1940 25.0267 1.4975 -2.7930 14.1086 -0.0000 0.0000 0.0000 -80.2979 -21.5578 69.7365 62.7368 -56.9962 -36.6275 -0.0000 -0.0000 25.7737 15.9596 27.2149 7.4513 -7.1250 0.0000 -0.0000 -15.8163 57.4140 -4.8906 -0.0000 0.0000 0.0000 89.4111 19.4890 46.2064 -48.8078 52.5032 -25.2252 0.0000 0.0000 30.7538 -11.8106 -17.9866 3.6945 7.1250 -0.0000 -0.0000 15.5726 -47.7034 -1.0631
3.0947 15.0217 7.9878 -177.6220 -19.1876 -156.4660 0.0000 0.0000 0.0000 0.8112 -26.7870 -65.2729 8.2026 16.2663 53.2893 -3.2854 30.1246 -10.7051 0.1193 -2.2268 -6.1328 0.0000 0.0000 0.0000 19.3153 24.1812 -48.3422 -7.0650 -15.3864 49.1198 -0.4471 -11.7724 -21.8249 -0.1045 2.0846 -5.7394 -2.9878 6.7698 38.5237 3.4111 2.9243 15.7248 4.1862 -0.6187 -1.7783 -2.7686 -4.9459 -30.8146 6.8741 -8.1769 25.0284 1.5280 -2.7852 14.1067 -0.0000 0.0000 0.0000 -80.4329 -21.4736 69.6010 62.4317 -56.9238 -36.3717 -0.0000 -0.0000 26.0049 16.0344 27.1019 7.4593 -7.1250 0.0000 -0.0000 -15.6714 57.3204 -4.8086 -0.0000 0.0000 0.0000 89.4930 19.5996 46.1761 -48.2629 52.2704 -24.7935 0.0000 0.0000 30.8062 -11.7402 -17.9317 3.6611 7.1250 -0.0000 -0.0000 15.6174 -47.6403 -1.0415
3.0711 15.0264 7.8640 -177.7770 -19.4478 -156.6490 0.0000 0.0000 0.0000 0.6510 -27.1282 -65.0770 7.4846 15.7268 50.6842 -3.1292 29.5086 -9.9727 0.1220 -2.2515 -6.2011 0.0000 0.0000 0.0000 19.6650 23.6819 -47.6136 -7.0995 -15.4151 49.2497 -0.5007 -11.7583 -22.3201 -0.1036 2.0752 -5.7135 -2.7841 6.5836 38.8467 3.4050 2.7201 15.7264 4.1417 -0.7187 -1.8482 -2.8471 -4.9084 -30.8428 6.9316 -8.1122 25.0765 1.5778 -2.7560 14.1361 -0.0000 -0.0000 0.0000 -80.5590 -21.3959 69.3466 62.0232 -56.8254 -36.0296 -0.0000 -0.0000 26.2527 16.0744 27.0318 7.4610 -7.1250 0.0000 -0.0000 -15.5884 57.2608 -4.7597 -0.0000 -0.0000 0.0000 89.5886 19.6971 46.2546 -47.7678 52.0545 -24.4025 0.0000 0.0000 30.8573 -11.7085 -17.8753 3.6399 7.1250 -0.0000 -0.0000 15.6261 -47.5810 -1.0187
3.0480 15.0276 7.7408 -177.9160 -19.6712 -156.7620 0.0000 0.0000 0.0000 0.4947 -27.3992 -64.9478 6.8303 15.1873 48.2296 -2.9329 28.7020 -9.1829 0.1246 -2.2756 -6.2681 0.0000 0.0000 0.0000 19.9963 23.2154 -47.0083 -7.1469 -15.4543 49.4277 -0.5563 -11.7376 -22.8139 -0.1068 2.1071 -5.8016 -2.6159 6.3735 39.0762 3.3627 2.4876 15.7219 4.0891 -0.8283 -1.8933 -2.9408 -4.8495 -30.9153 7.0061 -8.0175 25.1492 1.6434 -2.7115 14.1846 0.0000 0.0000 0.0000 -80.6428 -21.3308 69.0028 61.5585 -56.7111 -35.6409 -0.0000 -0.0000 26.4633 16.1120 27.0040 7.4722 -7.1250 0.0000 -0.0000 -15.5331 57.2418 -4.7351 0.0000 0.0000 0.0000 89.7166 19.7764 46.4204 -47.3229 51.8570 -24.0521 0.0000 0.0000 30.8909 -11.7106 -17.8328 3.6322 7.1250 -0.0000 -0.0000 15.6088 -47.5399 -1.0014
3.0245 15.0205 7.6215 -178.0160 -19.7991 -156.6700 0.0000 0.0000 0.0000 0.4481 -27.5659 -65.1202 6.2595 14.6752 46.0143 -2.7147 27.7680 -8.2979 0.1293 -2.3181 -6.3857 0.0000 0.0000 0.0000 20.2428 22.8757 -46.7485 -7.2288 -15.5216 49.7345 -0.6160 -11.6770 -23.2902 -0.1129 2.1663 -5.9654 -2.5163 6.1459 39.0156 3.2742 2.2492 15.7097 4.0280 -0.9296 -1.8594 -3.0484 -4.7711 -31.0483 7.0728 -7.8878 25.2586 1.7158 -2.6525 14.2584 -0.0000 0.0000 0.0000 -80.7043 -21.2751 68.5742 61.0434 -56.5816 -35.2107 -0.0000 -0.0000 26.6420 16.1677 26.9908 7.4957 -7.1250 0.0000 -0.0000 -15.4675 57.2407 -4.7140 -0.0000 0.0000 0.0000 89.8626 19.8411 46.6620 -46.9191 51.6747 -23.7349 0.0000 0.0000 30.9293 -11.7313 -17.7825 3.6289 7.1250 -0.0000 -0.0000 15.5717 -47.4937 -0.9808
2.9983 15.0029 7.5080 -178.0840 -19.8580 -156.3160 0.0000 0.0000 0.0000 0.5560 -27.6810 -65.6769 5.7729 14.2046 44.0634 -2.4884 26.7525 -7.3705 0.1391 -2.4039 -6.6233 0.0000 0.0000 0.0000 20.3780 22.6384 -46.9237 -7.3495 -15.6193 50.1841 -0.6791 -11.5625 -23.7301 -0.1213 2.2453 -6.1839 -2.4271 5.8694 38.5789 3.1286 1.9963 15.6943 3.9185 -1.0204 -1.7102 -3.1641 -4.6746 -31.1795 7.1448 -7.7306 25.3722 1.7980 -2.5824 14.3325 -0.0000 0.0000 0.0000 -80.7399 -21.2388 68.1082 60.5006 -56.4419 -34.7580 -0.0000 -0.0000 26.7632 16.2489 27.0008 7.5376 -7.1250 0.0000 -0.0000 -15.3888 57.2677 -4.6994 -0.0000 0.0000 0.0000 90.0241 19.8875 46.9452 -46.5774 51.5183 -23.4672 0.0000 0.0000 30.9087 -11.7803 -17.7409 3.6362 7.1250 -0.0000 -0.0000 15.5117 -47.4597 -0.9636
